%TF.GenerationSoftware,KiCad,Pcbnew,8.0.9-8.0.9-0~ubuntu24.04.1*%
%TF.CreationDate,2026-04-12T07:04:54-04:00*%
%TF.ProjectId,DATA_LOGER_IOT,44415441-5f4c-44f4-9745-525f494f542e,rev?*%
%TF.SameCoordinates,Original*%
%TF.FileFunction,Copper,L1,Top*%
%TF.FilePolarity,Positive*%
%FSLAX46Y46*%
G04 Gerber Fmt 4.6, Leading zero omitted, Abs format (unit mm)*
G04 Created by KiCad (PCBNEW 8.0.9-8.0.9-0~ubuntu24.04.1) date 2026-04-12 07:04:54*
%MOMM*%
%LPD*%
G01*
G04 APERTURE LIST*
%TA.AperFunction,Conductor*%
%ADD10C,0.250000*%
%TD*%
G04 APERTURE END LIST*
D10*
%TO.N,*%
X19000000Y-19000000D02*
X19500000Y-19500000D01*
X11500000Y-11500000D02*
X12000000Y-12000000D01*
X37000000Y-37000000D02*
X37500000Y-37500000D01*
X18500000Y-18500000D02*
X19000000Y-19000000D01*
X18500000Y-18500000D02*
X19000000Y-19000000D01*
X12000000Y-12000000D02*
X12500000Y-12500000D01*
X39500000Y-39500000D02*
X40000000Y-40000000D01*
X27000000Y-27000000D02*
X27500000Y-27500000D01*
X10000000Y-10000000D02*
X10500000Y-10500000D01*
X23000000Y-23000000D02*
X23500000Y-23500000D01*
X22000000Y-22000000D02*
X22500000Y-22500000D01*
X32000000Y-32000000D02*
X32500000Y-32500000D01*
X37000000Y-37000000D02*
X37500000Y-37500000D01*
X25500000Y-25500000D02*
X26000000Y-26000000D01*
X25000000Y-25000000D02*
X25500000Y-25500000D01*
X33500000Y-33500000D02*
X34000000Y-34000000D01*
X13000000Y-13000000D02*
X13500000Y-13500000D01*
X32500000Y-32500000D02*
X33000000Y-33000000D01*
X36000000Y-36000000D02*
X36500000Y-36500000D01*
X30500000Y-30500000D02*
X31000000Y-31000000D01*
X20000000Y-20000000D02*
X20500000Y-20500000D01*
X35500000Y-35500000D02*
X36000000Y-36000000D01*
X23000000Y-23000000D02*
X23500000Y-23500000D01*
X17500000Y-17500000D02*
X18000000Y-18000000D01*
X34000000Y-34000000D02*
X34500000Y-34500000D01*
X21000000Y-21000000D02*
X21500000Y-21500000D01*
X21500000Y-21500000D02*
X22000000Y-22000000D01*
X27000000Y-27000000D02*
X27500000Y-27500000D01*
X24500000Y-24500000D02*
X25000000Y-25000000D01*
X12500000Y-12500000D02*
X13000000Y-13000000D01*
X33000000Y-33000000D02*
X33500000Y-33500000D01*
X36500000Y-36500000D02*
X37000000Y-37000000D01*
X35000000Y-35000000D02*
X35500000Y-35500000D01*
X23500000Y-23500000D02*
X24000000Y-24000000D01*
X17000000Y-17000000D02*
X17500000Y-17500000D01*
X17000000Y-17000000D02*
X17500000Y-17500000D01*
X20500000Y-20500000D02*
X21000000Y-21000000D01*
X20000000Y-20000000D02*
X20500000Y-20500000D01*
X23500000Y-23500000D02*
X24000000Y-24000000D01*
X29000000Y-29000000D02*
X29500000Y-29500000D01*
X33000000Y-33000000D02*
X33500000Y-33500000D01*
X20500000Y-20500000D02*
X21000000Y-21000000D01*
X35000000Y-35000000D02*
X35500000Y-35500000D01*
X21000000Y-21000000D02*
X21500000Y-21500000D01*
X31500000Y-31500000D02*
X32000000Y-32000000D01*
X26000000Y-26000000D02*
X26500000Y-26500000D01*
X19000000Y-19000000D02*
X19500000Y-19500000D01*
X12000000Y-12000000D02*
X12500000Y-12500000D01*
X25500000Y-25500000D02*
X26000000Y-26000000D01*
X34500000Y-34500000D02*
X35000000Y-35000000D01*
X10000000Y-10000000D02*
X10500000Y-10500000D01*
X16000000Y-16000000D02*
X16500000Y-16500000D01*
X21500000Y-21500000D02*
X22000000Y-22000000D01*
X15500000Y-15500000D02*
X16000000Y-16000000D01*
X37500000Y-37500000D02*
X38000000Y-38000000D01*
X13500000Y-13500000D02*
X14000000Y-14000000D01*
X13000000Y-13000000D02*
X13500000Y-13500000D01*
X34000000Y-34000000D02*
X34500000Y-34500000D01*
X28000000Y-28000000D02*
X28500000Y-28500000D01*
X12500000Y-12500000D02*
X13000000Y-13000000D01*
X16000000Y-16000000D02*
X16500000Y-16500000D01*
X34000000Y-34000000D02*
X34500000Y-34500000D01*
X38500000Y-38500000D02*
X39000000Y-39000000D01*
X36000000Y-36000000D02*
X36500000Y-36500000D01*
X19000000Y-19000000D02*
X19500000Y-19500000D01*
X32000000Y-32000000D02*
X32500000Y-32500000D01*
X32500000Y-32500000D02*
X33000000Y-33000000D01*
X37000000Y-37000000D02*
X37500000Y-37500000D01*
X17000000Y-17000000D02*
X17500000Y-17500000D01*
X24500000Y-24500000D02*
X25000000Y-25000000D01*
X35500000Y-35500000D02*
X36000000Y-36000000D01*
X29500000Y-29500000D02*
X30000000Y-30000000D01*
X28500000Y-28500000D02*
X29000000Y-29000000D01*
X16500000Y-16500000D02*
X17000000Y-17000000D01*
X38500000Y-38500000D02*
X39000000Y-39000000D01*
X34500000Y-34500000D02*
X35000000Y-35000000D01*
X14500000Y-14500000D02*
X15000000Y-15000000D01*
X18000000Y-18000000D02*
X18500000Y-18500000D01*
X32500000Y-32500000D02*
X33000000Y-33000000D01*
X16000000Y-16000000D02*
X16500000Y-16500000D01*
X25000000Y-25000000D02*
X25500000Y-25500000D01*
X18000000Y-18000000D02*
X18500000Y-18500000D01*
X18500000Y-18500000D02*
X19000000Y-19000000D01*
X14000000Y-14000000D02*
X14500000Y-14500000D01*
X36500000Y-36500000D02*
X37000000Y-37000000D01*
X12000000Y-12000000D02*
X12500000Y-12500000D01*
X14000000Y-14000000D02*
X14500000Y-14500000D01*
X19500000Y-19500000D02*
X20000000Y-20000000D01*
X13000000Y-13000000D02*
X13500000Y-13500000D01*
X11000000Y-11000000D02*
X11500000Y-11500000D01*
X31000000Y-31000000D02*
X31500000Y-31500000D01*
X21000000Y-21000000D02*
X21500000Y-21500000D01*
X16500000Y-16500000D02*
X17000000Y-17000000D01*
X39500000Y-39500000D02*
X40000000Y-40000000D01*
X38500000Y-38500000D02*
X39000000Y-39000000D01*
X26500000Y-26500000D02*
X27000000Y-27000000D01*
X33000000Y-33000000D02*
X33500000Y-33500000D01*
X35000000Y-35000000D02*
X35500000Y-35500000D01*
X39000000Y-39000000D02*
X39500000Y-39500000D01*
X21500000Y-21500000D02*
X22000000Y-22000000D01*
X29000000Y-29000000D02*
X29500000Y-29500000D01*
X12500000Y-12500000D02*
X13000000Y-13000000D01*
X17500000Y-17500000D02*
X18000000Y-18000000D01*
X10500000Y-10500000D02*
X11000000Y-11000000D01*
X13500000Y-13500000D02*
X14000000Y-14000000D01*
X20000000Y-20000000D02*
X20500000Y-20500000D01*
X28500000Y-28500000D02*
X29000000Y-29000000D01*
X10500000Y-10500000D02*
X11000000Y-11000000D01*
X31500000Y-31500000D02*
X32000000Y-32000000D01*
X38000000Y-38000000D02*
X38500000Y-38500000D01*
X15500000Y-15500000D02*
X16000000Y-16000000D01*
X30500000Y-30500000D02*
X31000000Y-31000000D01*
X17500000Y-17500000D02*
X18000000Y-18000000D01*
X33500000Y-33500000D02*
X34000000Y-34000000D01*
X24000000Y-24000000D02*
X24500000Y-24500000D01*
X15000000Y-15000000D02*
X15500000Y-15500000D01*
X27500000Y-27500000D02*
X28000000Y-28000000D01*
X24000000Y-24000000D02*
X24500000Y-24500000D01*
X26500000Y-26500000D02*
X27000000Y-27000000D01*
X29500000Y-29500000D02*
X30000000Y-30000000D01*
X27000000Y-27000000D02*
X27500000Y-27500000D01*
X19500000Y-19500000D02*
X20000000Y-20000000D01*
X23000000Y-23000000D02*
X23500000Y-23500000D01*
X39500000Y-39500000D02*
X40000000Y-40000000D01*
X37500000Y-37500000D02*
X38000000Y-38000000D01*
X15000000Y-15000000D02*
X15500000Y-15500000D01*
X34500000Y-34500000D02*
X35000000Y-35000000D01*
X26500000Y-26500000D02*
X27000000Y-27000000D01*
X20500000Y-20500000D02*
X21000000Y-21000000D01*
X10500000Y-10500000D02*
X11000000Y-11000000D01*
X10000000Y-10000000D02*
X10500000Y-10500000D01*
X36000000Y-36000000D02*
X36500000Y-36500000D01*
X24500000Y-24500000D02*
X25000000Y-25000000D01*
X22500000Y-22500000D02*
X23000000Y-23000000D01*
X14000000Y-14000000D02*
X14500000Y-14500000D01*
X16500000Y-16500000D02*
X17000000Y-17000000D01*
X27500000Y-27500000D02*
X28000000Y-28000000D01*
X30500000Y-30500000D02*
X31000000Y-31000000D01*
X31500000Y-31500000D02*
X32000000Y-32000000D01*
X22500000Y-22500000D02*
X23000000Y-23000000D01*
X14500000Y-14500000D02*
X15000000Y-15000000D01*
X19500000Y-19500000D02*
X20000000Y-20000000D01*
X15500000Y-15500000D02*
X16000000Y-16000000D01*
X37500000Y-37500000D02*
X38000000Y-38000000D01*
X39000000Y-39000000D02*
X39500000Y-39500000D01*
X32000000Y-32000000D02*
X32500000Y-32500000D01*
X30000000Y-30000000D02*
X30500000Y-30500000D01*
X22000000Y-22000000D02*
X22500000Y-22500000D01*
X11500000Y-11500000D02*
X12000000Y-12000000D01*
X11000000Y-11000000D02*
X11500000Y-11500000D01*
X15000000Y-15000000D02*
X15500000Y-15500000D01*
X39000000Y-39000000D02*
X39500000Y-39500000D01*
X30000000Y-30000000D02*
X30500000Y-30500000D01*
X27500000Y-27500000D02*
X28000000Y-28000000D01*
X36500000Y-36500000D02*
X37000000Y-37000000D01*
X14500000Y-14500000D02*
X15000000Y-15000000D01*
X25500000Y-25500000D02*
X26000000Y-26000000D01*
X28000000Y-28000000D02*
X28500000Y-28500000D01*
X29500000Y-29500000D02*
X30000000Y-30000000D01*
X24000000Y-24000000D02*
X24500000Y-24500000D01*
X26000000Y-26000000D02*
X26500000Y-26500000D01*
X28500000Y-28500000D02*
X29000000Y-29000000D01*
X25000000Y-25000000D02*
X25500000Y-25500000D01*
X35500000Y-35500000D02*
X36000000Y-36000000D01*
X31000000Y-31000000D02*
X31500000Y-31500000D01*
X22000000Y-22000000D02*
X22500000Y-22500000D01*
X31000000Y-31000000D02*
X31500000Y-31500000D01*
X11000000Y-11000000D02*
X11500000Y-11500000D01*
X29000000Y-29000000D02*
X29500000Y-29500000D01*
X22500000Y-22500000D02*
X23000000Y-23000000D01*
X38000000Y-38000000D02*
X38500000Y-38500000D01*
X33500000Y-33500000D02*
X34000000Y-34000000D01*
X38000000Y-38000000D02*
X38500000Y-38500000D01*
X13500000Y-13500000D02*
X14000000Y-14000000D01*
X28000000Y-28000000D02*
X28500000Y-28500000D01*
X26000000Y-26000000D02*
X26500000Y-26500000D01*
X23500000Y-23500000D02*
X24000000Y-24000000D01*
X11500000Y-11500000D02*
X12000000Y-12000000D01*
X18000000Y-18000000D02*
X18500000Y-18500000D01*
X30000000Y-30000000D02*
X30500000Y-30500000D01*
%TD*%
M02*
